# xmcd
#
# Track frame offsets: 
#        150
#        16706
#        30776
#        47079
#        62274
#        84073
#        94969
#        108410
#        119300
#        135876
#        147315
#        165716
#        180185
#        200525
#        217333
#        235921
#        265056
#
# Disc length: 3845 seconds
#
# Revision: 8
# Processed by: cddbd v1.5.2PL0 Copyright (c) Steve Scherf et al.
# Submitted via: ExactAudioCopyFreeDBPlugin 1.0
#
DISCID=d30f0311
DTITLE=Rowwen Heze - 'T Beste van 2 Werelden [CD1)
DYEAR=1999
DGENRE=Blues
TTITLE0=Rowwen Hèze
TTITLE1=Bestel Mar
TTITLE2='t Roeie Klied
TTITLE3=En Dan Is 't Mar Dom
TTITLE4=De Neus Umhoeg
TTITLE5=Kroenenberg
TTITLE6=Klompendans
TTITLE7=Lucht
TTITLE8=The Moon Is Mine
TTITLE9=Henk Is Enne Lollige Vent
TTITLE10=Heilige Anthonius
TTITLE11=She Stole My Accordeon
TTITLE12=Zondag In 't Zuiden
TTITLE13=Blieve Loepe
TTITLE14=Limburg
TTITLE15=Auto, Vliegtuug
TTITLE16=Auto, vliegtuug CD rom
EXTD=
EXTT0=
EXTT1=
EXTT2=
EXTT3=
EXTT4=
EXTT5=
EXTT6=
EXTT7=
EXTT8=
EXTT9=
EXTT10=
EXTT11=
EXTT12=
EXTT13=
EXTT14=
EXTT15=
EXTT16=
PLAYORDER=
